<?xml version="1.0" encoding="UTF-8" standalone="no"?>
<!-- Created with Inkscape (http://www.inkscape.org/) -->

<svg
   width="1000"
   height="1000"
   viewBox="0 0 264.58333 264.58333"
   version="1.1"
   id="svg8"
   inkscape:version="1.1.2 (0a00cf5339, 2022-02-04)"
   sodipodi:docname="drawing.svg"
   xmlns:inkscape="http://www.inkscape.org/namespaces/inkscape"
   xmlns:sodipodi="http://sodipodi.sourceforge.net/DTD/sodipodi-0.dtd"
   xmlns="http://www.w3.org/2000/svg"
   xmlns:svg="http://www.w3.org/2000/svg"
   xmlns:rdf="http://www.w3.org/1999/02/22-rdf-syntax-ns#"
   xmlns:cc="http://creativecommons.org/ns#"
   xmlns:dc="http://purl.org/dc/elements/1.1/">
  <defs
     id="defs2" />
  <sodipodi:namedview
     id="base"
     pagecolor="#ffffff"
     bordercolor="#666666"
     borderopacity="1.0"
     inkscape:pageopacity="0.0"
     inkscape:pageshadow="0"
     inkscape:zoom="0.24748737"
     inkscape:cx="363.65492"
     inkscape:cy="68.690373"
     inkscape:document-units="px"
     inkscape:current-layer="layer1"
     showgrid="false"
     units="px"
     inkscape:window-width="1920"
     inkscape:window-height="1144"
     inkscape:window-x="0"
     inkscape:window-y="0"
     inkscape:window-maximized="1"
     inkscape:pagecheckerboard="0" />
  <metadata
     id="metadata5">
    <rdf:RDF>
      <cc:Work
         rdf:about="">
        <dc:format>image/svg+xml</dc:format>
        <dc:type
           rdf:resource="http://purl.org/dc/dcmitype/StillImage" />
      </cc:Work>
    </rdf:RDF>
  </metadata>
  <g
     inkscape:label="Layer 1"
     inkscape:groupmode="layer"
     id="layer1"
     transform="translate(0,-32.416677)">
    <path
       style="fill:#fffffd;fill-opacity:1;stroke:#000000;stroke-width:0.753986;stroke-linecap:butt;stroke-linejoin:miter;stroke-miterlimit:4;stroke-dasharray:none;stroke-opacity:1"
       d="m -276.05684,115.92582 c 34.98659,26.55319 77.7528,49.62482 127.01282,69.7903 49.80909,14.16344 75.55423,12.02173 81.75365,-3.36368 0,0 -2.10147,2.98176 0,0 12.71129,-18.03587 -17.55404,-41.81256 -33.42808,-47.76009 -42.47917,-15.1671 -103.76276,-32.22259 -127.43748,-45.501317 -5.30568,-2.85208 -9.53075,-6.46342 -10.36069,-12.4603 49.48843,16.61568 54.13613,21.04957 87.81882,29.837647 22.87082,4.28619 34.15375,-19.146207 22.60415,-30.546577 -13.27464,-13.45563 -43.18945,-28.07263 -82.44513,-37.69347 -32.71026,-9.54548 -121.60029,22.22529 -65.51806,77.697487 z"
       id="path867"
       sodipodi:nodetypes="cccsccccccc" />
    <path
       style="fill:#fffffd;fill-opacity:1;stroke:#000000;stroke-width:0.753986;stroke-linecap:butt;stroke-linejoin:miter;stroke-miterlimit:4;stroke-dasharray:none;stroke-opacity:1"
       d="m -238.51662,76.630733 c -17.4888,-14.59868 -51.10679,18.84991 -37.54022,39.295087 19.04092,11.00105 43.00467,-26.650387 37.54022,-39.295087 z"
       id="path2468"
       sodipodi:nodetypes="ccc" />
    <path
       style="fill:#fffffd;fill-opacity:1;stroke:#000000;stroke-width:0.753986;stroke-linecap:butt;stroke-linejoin:miter;stroke-miterlimit:4;stroke-dasharray:none;stroke-opacity:1"
       d="m -238.51662,76.630733 c -14.66826,-15.6139 12.83133,-43.51245 27.97784,-38.4024 11.37397,9.5977 -19.41724,44.33854 -27.97784,38.4024 z"
       id="path3396"
       sodipodi:nodetypes="ccc" />
    <path
       style="fill:#fffffd;fill-opacity:1;stroke:#000000;stroke-width:0.714375;stroke-linecap:butt;stroke-linejoin:miter;stroke-miterlimit:4;stroke-dasharray:none;stroke-opacity:1"
       d="m 33.66866,42.446913 c -14.26735,-13.97298 -57.59698,25.45065 -38.4387302,44.2994 11.31946,7.86596 29.3394802,4.63966 42.0537502,27.874367 50.383212,82.97702 86.94731,53.88353 124.49749,52.59214 48.80628,-5.78866 32.76979,2.52262 49.15468,3.78393 21.231,9.4436 32.24534,10.56447 39.47557,8.6027 23.84041,1.27072 26.91231,-46.47741 14.87972,-46.54363 -24.22781,-8.39777 -34.16965,-20.8284 -47.44204,-32.31883 -17.48139,-23.346017 -29.73455,-48.653987 -105.92289,-55.278417 -21.629268,2.14194 -37.221678,0.31463 -62.261478,0.15385 -6.43532,1.52209 -9.355952,-0.21607 -15.996072,-3.16551 z"
       id="path6627"
       sodipodi:nodetypes="ccccccccccc" />
    <path
       style="fill:none;stroke:#000000;stroke-width:0.714375;stroke-linecap:butt;stroke-linejoin:miter;stroke-miterlimit:4;stroke-dasharray:none;stroke-opacity:1"
       d="m 65.252142,79.835393 c 19.17063,6.84702 21.99014,17.40973 31.40371,26.473987 13.262538,29.78966 41.796848,17.32989 60.059138,10.3856 25.1734,-6.16405 36.637,-0.93178 48.4491,4.01079 l -0.46035,-0.41257"
       id="path9274"
       sodipodi:nodetypes="ccccc" />
    <path
       style="fill:none;stroke:#000000;stroke-width:0.714375;stroke-linecap:butt;stroke-linejoin:miter;stroke-miterlimit:4;stroke-dasharray:none;stroke-opacity:1"
       d="m 86.999602,92.645663 c 33.124388,-6.65961 55.743428,-3.68877 90.410938,21.504277"
       id="path9560"
       sodipodi:nodetypes="cc" />
    <path
       style="fill:none;stroke:#000000;stroke-width:0.714375;stroke-linecap:butt;stroke-linejoin:miter;stroke-miterlimit:4;stroke-dasharray:none;stroke-opacity:1"
       d="m 265.29115,133.05582 c -23.85835,3.53773 -28.92353,40.44776 -14.87974,46.54363"
       id="path10587"
       sodipodi:nodetypes="cc" />
    <path
       style="fill:#fffffd;fill-opacity:1;stroke:#000000;stroke-width:0.529167;stroke-linecap:butt;stroke-linejoin:miter;stroke-miterlimit:4;stroke-dasharray:none;stroke-opacity:1"
       d="m 342.53776,104.17673 c 37.33272,14.62331 26.34879,22.81656 39.52326,34.22492 16.52564,30.09254 45.24215,36.90974 81.43484,29.45362 44.53637,-7.06779 42.82656,3.32849 60.66001,6.34451 l 19.02168,2.12538 c 20.18879,-1.62436 21.36411,-30.05362 17.07492,-35.73048 -14.99514,-9.79396 -35.66466,-12.61843 -57.21417,-14.36234 -21.58397,0.28947 -33.63787,-7.97008 -54.16995,-3.71414 -29.93241,14.25359 -35.01715,-6.13949 -37.70978,-8.93944 -9.09094,-18.716347 -20.81067,-19.595697 -24.42046,-22.229427 8.98227,3.21886 16.17701,9.842697 15.99322,10.997997 28.3379,-1.31642 27.12955,-1.91108 40.69424,-2.866647 25.20508,-10.75558 14.83031,-29.25899 -1.37232,-33.23697 -27.65541,3.17525 -76.60031,5.29931 -80.84657,-3.41502 -29.74329,2.31387 -30.88054,32.92721 -23.23949,39.745077 z"
       id="path10963"
       sodipodi:nodetypes="cccccccccccccccc" />
    <path
       style="fill:none;stroke:#000000;stroke-width:0.529167;stroke-linecap:butt;stroke-linejoin:miter;stroke-miterlimit:4;stroke-dasharray:none;stroke-opacity:1"
       d="m 560.25248,140.59468 c -12.8703,-10.06733 -31.96102,29.27465 -17.07494,35.73048"
       id="path12940"
       sodipodi:nodetypes="cc" />
  </g>
</svg>
